<?xml version="1.0" encoding="utf-8"?>
<svg viewBox="0 0 500 500" xmlns="http://www.w3.org/2000/svg" xmlns:bx="https://boxy-svg.com">
  <defs>
    <linearGradient gradientUnits="userSpaceOnUse" x1="237.475" y1="160.18" x2="237.475" y2="322.398" id="gradient-0" gradientTransform="matrix(0.99825, -0.016926, 0.010447, 0.472402, -3.081049, 174.116404)">
      <stop offset="0" style="stop-color: rgb(255, 255, 255);"/>
      <stop offset="1" style="stop-color: rgb(71, 123, 191);"/>
    </linearGradient>
    <linearGradient id="gradient-1" bx:pinned="true"/>
    <linearGradient gradientUnits="userSpaceOnUse" x1="237.475" y1="284.548" x2="237.475" y2="363.23" id="gradient-2">
      <stop offset="0" style="stop-color: rgb(165, 190, 223);"/>
      <stop offset="1" style="stop-color: rgb(88, 135, 197);"/>
    </linearGradient>
  </defs>
  <ellipse style="stroke: rgb(0, 0, 0); stroke-width: 2px; fill: none;" cx="237.475" cy="160.659" rx="80.492" ry="39.341"/>
  <polyline style="stroke-width: 2px; fill: url(#gradient-0);" points="317.967 209.124 156.983 209.124 156.983 322.398 317.967 322.398"/>
  <line style="fill: rgb(216, 216, 216); stroke: rgb(0, 0, 0); stroke-width: 2px;" x1="317.967" y1="160.18" x2="318.224" y2="322.398"/>
  <g transform="matrix(0.11215, 0, 0, 0.106, 317.96698, 277.547394)" style="">
    <g>
      <path d="M408.284,170.681H368.02c-8.861-18.932-22.547-35.12-39.898-47.107c-11.912-8.231-25.074-14.102-38.926-17.481V89.898 h47.035c5.632,0,10.199-4.566,10.199-10.199V49.037c0-5.633-4.567-10.199-10.199-10.199h-47.035V18.376 c0-5.633-4.567-10.199-10.199-10.199h-36.794c-5.633,0-10.199,4.566-10.199,10.199v20.463h-47.036 c-5.633,0-10.199,4.566-10.199,10.199V79.7c0,5.633,4.566,10.199,10.199,10.199h47.036v16.45 c-13.477,3.416-26.286,9.198-37.905,17.225c-17.35,11.987-31.036,28.175-39.898,47.107h-144C4.566,170.682,0,175.248,0,180.881 V260.6c0,5.633,4.566,10.199,10.199,10.199h144c8.862,18.932,22.548,35.12,39.898,47.107 c19.751,13.646,42.922,20.858,67.012,20.858c24.089,0,47.261-7.213,67.011-20.858c17.351-11.987,31.037-28.175,39.898-47.107 H396.7c8.37,0,15.182,6.811,15.182,15.182v52.294c0,5.633,4.567,10.199,10.199,10.199h79.72c5.632,0,10.199-4.566,10.199-10.199 v-63.878C512,217.207,465.473,170.681,408.284,170.681z M252.402,28.575h16.395v10.263h-16.395V28.575z M195.167,69.499V59.236 h130.864v10.263H195.167z M268.797,89.898v13.081c-2.551-0.164-5.112-0.263-7.686-0.263c-2.918,0-5.822,0.111-8.709,0.321v-13.14 H268.797z M432.281,328.075V285.98c0-19.619-15.961-35.58-35.58-35.58h-35.377c-4.177,0-7.931,2.547-9.476,6.427 c-14.882,37.383-50.499,61.539-90.738,61.539c-40.24,0-75.857-24.156-90.738-61.539c-1.545-3.881-5.299-6.427-9.476-6.427H20.398 v-59.321h140.497c4.177,0,7.931-2.547,9.476-6.427c14.882-37.383,50.499-61.539,90.738-61.539 c40.239,0,75.857,24.156,90.738,61.539c1.545,3.881,5.299,6.427,9.476,6.427h46.959c45.941,0,83.317,37.376,83.317,83.317v53.678 H432.281z" style="stroke-width: 0px; stroke: rgb(186, 218, 85);"/>
    </g>
  </g>
  <g transform="matrix(0.115897, 0, 0, 0.127451, 156.983002, 55.586636)" style="">
    <g>
      <path d="M 408.284 190.864 L 368.02 190.864 C 359.159 174.082 345.473 159.731 328.122 149.105 C 316.21 141.809 303.048 136.604 289.196 133.609 L 289.196 119.252 L 336.231 119.252 C 341.863 119.252 346.43 115.204 346.43 110.211 L 346.43 83.03 C 346.43 78.036 341.863 73.989 336.231 73.989 L 289.196 73.989 L 289.196 55.849 C 289.196 50.856 284.629 46.808 278.997 46.808 L 242.203 46.808 C 236.57 46.808 232.004 50.856 232.004 55.849 L 232.004 73.989 L 184.968 73.989 C 179.335 73.989 174.769 78.037 174.769 83.031 L 174.769 110.212 C 174.769 115.205 179.335 119.253 184.968 119.253 L 232.004 119.253 L 232.004 133.836 C 218.527 136.864 205.718 141.989 194.099 149.105 C 176.749 159.731 163.063 174.082 154.201 190.864 L 10.201 190.864 C 4.566 190.865 0 194.913 0 199.906 L 0 270.576 C 0 275.569 4.566 279.617 10.199 279.617 L 154.199 279.617 C 163.061 296.4 176.747 310.75 194.097 321.376 C 213.848 333.473 237.019 339.866 261.109 339.866 C 285.198 339.866 308.37 333.472 328.12 321.376 C 345.471 310.75 359.157 296.4 368.018 279.617 L 396.7 279.617 C 405.07 279.617 411.882 285.655 411.882 293.075 L 411.882 339.433 C 411.882 344.426 416.449 348.474 422.081 348.474 L 501.801 348.474 C 507.433 348.474 512 344.426 512 339.433 L 512 282.806 C 512 232.109 465.473 190.864 408.284 190.864 Z M 252.402 64.891 L 268.797 64.891 L 268.797 73.989 L 252.402 73.989 L 252.402 64.891 L 252.402 64.891 Z M 195.167 101.169 L 195.167 92.071 L 326.031 92.071 L 326.031 101.169 L 195.167 101.169 Z M 268.797 119.252 L 268.797 130.848 C 266.246 130.703 263.685 130.615 261.111 130.615 C 258.193 130.615 255.289 130.713 252.402 130.9 L 252.402 119.251 L 268.797 119.251 L 268.797 119.252 Z M 432.281 330.391 L 432.281 293.074 C 432.281 275.683 416.32 261.534 396.701 261.534 L 361.324 261.534 C 357.147 261.534 353.393 263.791 351.848 267.231 C 336.966 300.37 301.349 321.784 261.11 321.784 C 220.87 321.784 185.253 300.37 170.372 267.231 C 168.827 263.79 165.073 261.534 160.896 261.534 L 20.398 261.534 L 20.398 208.947 L 160.895 208.947 C 165.072 208.947 168.826 206.689 170.371 203.249 C 185.253 170.11 220.87 148.696 261.109 148.696 C 301.348 148.696 336.966 170.11 351.847 203.249 C 353.392 206.69 357.146 208.947 361.323 208.947 L 408.282 208.947 C 454.223 208.947 491.599 242.08 491.599 282.805 L 491.599 330.39 L 432.281 330.39 L 432.281 330.391 Z" style="stroke-width: 0px; stroke: rgb(186, 218, 85);"/>
    </g>
  </g>
  <line style="fill: rgb(216, 216, 216); stroke: rgb(0, 0, 0); stroke-width: 2px;" x1="156.983" y1="160.18" x2="156.983" y2="322.398"/>
  <ellipse style="stroke: rgb(0, 0, 0); stroke-width: 2px; fill: url(#gradient-2);" cx="237.475" cy="323.889" rx="80.492" ry="39.341"/>
</svg>