<?xml version="1.0" encoding="utf-8"?>
<svg version="1.1" id="Layer_1" x="0px" y="0px" viewBox="0 0 1920 1005" style="enable-background:new 0 0 1920 1005;" xmlns="http://www.w3.org/2000/svg">
  <style type="text/css">
	.st0{fill:none;stroke:#000000;stroke-miterlimit:10;stroke-dasharray:6;}
	.st1{fill:none;stroke:#A61D3D;stroke-miterlimit:10;}
	
		.st2{fill:none;stroke:#AAAAAA;stroke-width:0.3;stroke-linecap:round;stroke-miterlimit:10;stroke-dasharray:5,10;stroke-dashoffset:10;}
	.st3{fill:none;stroke:#000000;stroke-linecap:round;stroke-miterlimit:10;}
	.st4{fill:none;stroke:#3791A6;stroke-miterlimit:10;}
	.st5{fill:none;stroke:#000000;stroke-miterlimit:10;}
</style>
  <g id="wrapperHolder"/>
  <g id="legendHolder"/>
  <g>
    <line class="st0" x1="442.5" y1="297.5" x2="442.5" y2="452.5"/>
    <g id="mainHolder" transform="translate(-24.64286,72)">
      <g id="rangeHolder"/>
      <g id="pruningHolder"/>
      <g id="treeHolder">
        <g>
          <path class="st1" d="M394.1,330"/>
        </g>
        <g>
          <path class="st1" d="M468,240h-2.5"/>
          <path class="st1" d="M465.5,240h-35.7"/>
        </g>
        <g>
          <path class="st1" d="M468,210h-2.5"/>
          <path class="st1" d="M465.5,210h-35.7"/>
        </g>
        <g>
          <path class="st1" d="M468,180h-2.5"/>
          <path class="st1" d="M465.5,180h-71.4"/>
        </g>
        <g>
          <path class="st2" d="M468,150h-2.5"/>
          <path class="st3" d="M429.8,150"/>
          <path class="st3" d="M465.5,150"/>
        </g>
        <g>
          <path class="st4" d="M429.8,120"/>
        </g>
        <g>
          <path class="st4" d="M394.1,90"/>
        </g>
        <g>
          <path class="st2" d="M468,60h-2.5"/>
          <path class="st3" d="M429.8,60"/>
          <path class="st3" d="M465.5,60"/>
        </g>
        <g>
          <path class="st2" d="M468,30h-2.5"/>
          <path class="st3" d="M429.8,30"/>
          <path class="st3" d="M465.5,30"/>
        </g>
        <g>
          <path class="st2" d="M468,0h-2.5"/>
          <path class="st3" d="M394.1,0"/>
          <path class="st3" d="M465.5,0"/>
        </g>
        <g>
          <path class="st3" d="M429.8,60"/>
        </g>
        <g>
          <path class="st3" d="M465.5,39.7H142.9"/>
        </g>
        <g>
          <path class="st3" d="M429.8,150"/>
        </g>
        <g>
          <path class="st3" d="M392.8,112.5H214.3"/>
        </g>
        <g>
          <path class="st1" d="M429.8,225h-35.7 M429.8,240v-30"/>
        </g>
        <g>
          <path class="st3" d="M394.1,202.5H285.7"/>
        </g>
        <g>
          <path class="st1" d="M394.1,285"/>
        </g>
        <g>
          <path class="st5" d="M468,307.5H285.7"/>
        </g>
        <g>
          <path class="st3" d="M285.7,255h-71.4 M285.7,307.5v-105"/>
        </g>
        <g>
          <path class="st3" d="M214.3,183.8h-71.4 M214.3,255V112.5"/>
        </g>
        <g>
          <path class="st3" d="M142.9,183.8v-144"/>
        </g>
      </g>
      <g id="scaleHolder"/>
      <g id="bootstrapHolder"/>
      <g id="branchlengthHolder"/>
      <g id="branchIDHolder"/>
      <g id="datasetHolder"/>
    </g>
    <line class="st1" x1="369.5" y1="297.5" x2="369.5" y2="251.5"/>
    <g style="" transform="matrix(1.410774, 0, 0, 0.942535, -77.923775, 26.273222)">
      <g>
        <line class="st5" x1="199.4" y1="453.5" x2="357.7" y2="452.6"/>
        <g>
          <polygon points="204.3,457.2 201.6,453.5 204.1,449.8 189.7,453.6 &#9;&#9;&#9;&#9;"/>
        </g>
        <g>
          <polygon points="369.5,452.5 353.1,456.7 356.9,452.6 352.9,448.5 &#9;&#9;&#9;&#9;"/>
        </g>
      </g>
    </g>
    <line class="st0" x1="189.7" y1="327" x2="189.7" y2="449"/>
    <g transform="matrix(1, 0, 0, 1, 40.499939, 2.899994)">
      <g>
        <path d="M262.2,439.9h-0.8v-5.3c0-0.2,0-0.4,0-0.5s0-0.3,0-0.4s0-0.2,0-0.4c-0.1,0.1-0.2,0.2-0.3,0.3c-0.1,0.1-0.2,0.2-0.3,0.3 l-0.9,0.7l-0.4-0.6l2-1.6h0.7L262.2,439.9L262.2,439.9z"/>
        <path d="M268.3,432.4l-2.8,7.5h-0.8l2.8-7.5H268.3z"/>
        <path d="M273.8,439.9h-4.9v-0.7l2-2c0.4-0.4,0.7-0.7,0.9-1c0.3-0.3,0.4-0.6,0.6-0.9s0.2-0.6,0.2-0.9c0-0.4-0.1-0.7-0.4-1 c-0.3-0.2-0.6-0.3-1-0.3s-0.7,0.1-1,0.2s-0.6,0.3-0.9,0.5l-0.5-0.6c0.2-0.2,0.4-0.3,0.6-0.4s0.5-0.2,0.8-0.3 c0.3-0.1,0.6-0.1,0.9-0.1c0.5,0,0.9,0.1,1.2,0.2c0.3,0.2,0.6,0.4,0.8,0.7c0.2,0.3,0.3,0.7,0.3,1.1s-0.1,0.8-0.2,1.1 c-0.2,0.3-0.4,0.7-0.7,1s-0.6,0.7-1,1.1l-1.6,1.6l0,0h3.8v0.7L273.8,439.9L273.8,439.9z"/>
        <path d="M283.8,446.1c-1.6,0-2.9-0.6-3.9-1.7s-1.4-2.8-1.4-4.9c0-2.2,0.5-3.9,1.5-5s2.3-1.7,3.9-1.7c0.7,0,1.3,0.1,1.8,0.3 s0.9,0.4,1.3,0.7s0.7,0.6,0.9,1h0.1c0-0.2-0.1-0.6-0.1-1s0-0.8,0-1v-5.1h1.9v18.2h-1.6l-0.3-1.8h-0.1c-0.2,0.4-0.5,0.7-0.9,1 s-0.8,0.6-1.3,0.7S284.4,446.1,283.8,446.1z M284.1,444.5c1.4,0,2.3-0.4,2.9-1.2s0.9-1.9,0.9-3.5v-0.3c0-1.6-0.3-2.9-0.8-3.8 s-1.5-1.3-3-1.3c-1.2,0-2.1,0.5-2.7,1.4s-0.9,2.2-0.9,3.8c0,1.6,0.3,2.8,0.9,3.7S282.9,444.5,284.1,444.5z"/>
        <path d="M297.9,444.5c0.3,0,0.6,0,1-0.1s0.6-0.1,0.8-0.2v1.5c-0.2,0.1-0.5,0.2-0.9,0.3s-0.8,0.1-1.2,0.1c-0.7,0-1.3-0.1-1.9-0.4 s-1-0.6-1.3-1.2s-0.5-1.4-0.5-2.4v-7.6h-1.8v-0.9l1.8-0.8l0.8-2.8h1.2v3h3.8v1.5h-3.8v7.6c0,0.8,0.2,1.4,0.6,1.8 S297.4,444.5,297.9,444.5z"/>
      </g>
    </g>
    <g>
      <g>
        <path d="M471.8,387h-3.1v-5.4H466v5.4H463v-12.8h3.1v4.9h2.7v-4.9h3.1V387z"/>
        <path d="M481.5,377.1v10h-2.3l-0.3-1.2h-0.1c-0.2,0.3-0.3,0.6-0.6,0.8s-0.5,0.4-0.7,0.5s-0.6,0.2-0.9,0.2c-0.6,0-1.1-0.1-1.5-0.4 s-0.7-0.7-0.9-1.2s-0.3-1.2-0.3-2v-6.5h2.9v5.5c0,0.7,0.1,1.2,0.2,1.5s0.3,0.5,0.6,0.5c0.4,0,0.6-0.1,0.8-0.3s0.3-0.5,0.3-0.9 s0.1-0.9,0.1-1.4v-4.9H481.5z"/>
        <path d="M493.1,376.9c0.9,0,1.6,0.3,2,0.9s0.7,1.5,0.7,2.8v6.5h-2.9v-5.5c0-0.7-0.1-1.2-0.2-1.5s-0.3-0.5-0.6-0.5 c-0.4,0-0.7,0.2-0.8,0.7s-0.2,1.2-0.2,2.1v4.8h-2.9v-5.5c0-0.4,0-0.8-0.1-1.1s-0.1-0.5-0.3-0.7s-0.3-0.2-0.4-0.2 c-0.3,0-0.5,0.1-0.6,0.3s-0.3,0.5-0.3,1s-0.1,1-0.1,1.8v4.5h-2.9v-10h2.3l0.3,1.2h0.2c0.1-0.3,0.3-0.6,0.5-0.8s0.5-0.4,0.8-0.5 s0.7-0.2,1.1-0.2c0.6,0,1.1,0.1,1.4,0.4s0.6,0.6,0.7,0.9h0.2c0.2-0.4,0.5-0.7,0.9-1S492.5,376.9,493.1,376.9z"/>
        <path d="M501.4,376.9c1,0,1.8,0.3,2.4,0.9s0.9,1.5,0.9,2.7v6.5h-2.1l-0.5-1.3H502c-0.2,0.3-0.4,0.6-0.7,0.8s-0.5,0.4-0.8,0.5 s-0.7,0.2-1.1,0.2c-0.6,0-1-0.2-1.4-0.5s-0.6-0.7-0.8-1.2s-0.2-1-0.2-1.5c0-1.1,0.3-1.9,0.9-2.4s1.4-0.8,2.5-0.9l1.3-0.1v-0.3 c0-0.4-0.1-0.7-0.2-0.9s-0.4-0.3-0.7-0.3c-0.3,0-0.6,0.1-1,0.2s-0.7,0.3-1.2,0.6l-0.8-2.2c0.5-0.3,1-0.5,1.6-0.7 S500.7,376.9,501.4,376.9z M501.7,382.6l-0.5,0c-0.4,0-0.7,0.1-0.9,0.3s-0.3,0.5-0.3,0.9c0,0.3,0.1,0.6,0.2,0.8s0.3,0.3,0.5,0.3 c0.3,0,0.5-0.1,0.7-0.4s0.3-0.6,0.3-1V382.6z"/>
        <path d="M511.4,376.9c0.9,0,1.5,0.3,2,1s0.7,1.5,0.7,2.7v6.5h-2.9v-5.5c0-0.7-0.1-1.2-0.2-1.5s-0.3-0.5-0.7-0.5 c-0.4,0-0.7,0.2-0.8,0.7s-0.2,1.2-0.2,2.3v4.6h-2.9v-10h2.3l0.3,1.2h0.2c0.2-0.3,0.3-0.6,0.5-0.8s0.5-0.4,0.7-0.5 S511.1,376.9,511.4,376.9z"/>
        <path d="M521.7,384c0,0.7-0.1,1.3-0.4,1.8s-0.7,0.8-1.2,1.1s-1.1,0.4-1.8,0.4c-0.5,0-1,0-1.4-0.1s-0.9-0.2-1.4-0.4v-2.8 c0.4,0.2,0.8,0.4,1.2,0.6s0.9,0.2,1.3,0.2c0.3,0,0.5,0,0.6-0.1s0.2-0.2,0.2-0.4c0-0.1,0-0.2-0.1-0.3s-0.2-0.2-0.4-0.4 s-0.5-0.3-1-0.6c-0.4-0.2-0.7-0.5-1-0.8s-0.5-0.6-0.6-1s-0.2-0.8-0.2-1.3c0-0.9,0.3-1.6,0.8-2.2s1.4-0.8,2.4-0.8 c0.5,0,1,0.1,1.5,0.2s0.9,0.4,1.4,0.6l-0.7,2.2c-0.3-0.2-0.6-0.4-0.9-0.5s-0.7-0.2-1-0.2c-0.2,0-0.4,0-0.5,0.1s-0.1,0.2-0.1,0.4 c0,0.1,0,0.2,0.1,0.3s0.2,0.2,0.4,0.3s0.5,0.3,0.9,0.6c0.4,0.2,0.8,0.5,1.1,0.8s0.5,0.6,0.7,1S521.7,383.5,521.7,384z"/>
      </g>
    </g>
    <g>
      <g>
        <path d="M468.4,267.6c-0.3,0-0.6,0.1-0.8,0.3s-0.4,0.5-0.6,0.8s-0.3,0.8-0.4,1.3s-0.1,1.1-0.1,1.7c0,0.9,0.1,1.6,0.2,2.2 s0.4,1,0.7,1.3s0.7,0.4,1.1,0.4c0.4,0,0.8-0.1,1.2-0.2s0.8-0.3,1.2-0.6v2.7c-0.4,0.2-0.9,0.4-1.3,0.5s-1,0.2-1.5,0.2 c-1,0-1.9-0.3-2.6-0.8s-1.2-1.2-1.6-2.2s-0.5-2.2-0.5-3.6c0-1,0.1-1.9,0.3-2.7s0.5-1.5,1-2.1s0.9-1,1.5-1.4s1.3-0.5,2-0.5 c0.6,0,1.1,0.1,1.6,0.2s1,0.4,1.6,0.7l-0.8,2.5c-0.3-0.2-0.7-0.4-1-0.6S468.8,267.6,468.4,267.6z"/>
        <path d="M475.6,264.3v2.5c0,0.4,0,0.8-0.1,1.2s-0.1,0.8-0.2,1.2h0.2c0.1-0.3,0.3-0.6,0.5-0.8s0.4-0.4,0.7-0.5s0.6-0.2,0.9-0.2 c0.6,0,1.1,0.1,1.5,0.4s0.7,0.7,0.9,1.2s0.3,1.2,0.3,2v6.5h-2.9v-5.5c0-0.7-0.1-1.2-0.2-1.5s-0.3-0.5-0.6-0.5 c-0.3,0-0.6,0.1-0.7,0.3s-0.3,0.5-0.3,1s-0.1,1-0.1,1.7v4.6h-2.9v-13.7H475.6z"/>
        <path d="M483.6,264c0.5,0,0.9,0.1,1.2,0.4s0.4,0.6,0.4,1.1s-0.1,0.9-0.4,1.1s-0.6,0.4-1.2,0.4c-0.5,0-0.9-0.1-1.2-0.4 s-0.4-0.6-0.4-1.1c0-0.5,0.1-0.9,0.4-1.2S483.1,264,483.6,264z M485.1,268v10h-2.9v-10H485.1z"/>
        <path d="M496.7,267.8c0.9,0,1.6,0.3,2,0.9s0.7,1.5,0.7,2.8v6.5h-2.9v-5.5c0-0.7-0.1-1.2-0.2-1.5s-0.3-0.5-0.6-0.5 c-0.4,0-0.7,0.2-0.8,0.7s-0.2,1.2-0.2,2.1v4.8h-2.9v-5.5c0-0.4,0-0.8-0.1-1.1s-0.1-0.5-0.3-0.7s-0.3-0.2-0.4-0.2 c-0.3,0-0.5,0.1-0.6,0.3s-0.3,0.5-0.3,1s-0.1,1-0.1,1.8v4.5h-2.9v-10h2.3l0.3,1.2h0.2c0.1-0.3,0.3-0.6,0.5-0.8s0.5-0.4,0.8-0.5 s0.7-0.2,1.1-0.2c0.6,0,1.1,0.1,1.4,0.4s0.6,0.6,0.7,0.9h0.2c0.2-0.4,0.5-0.7,0.9-1S496.2,267.8,496.7,267.8z"/>
        <path d="M506.1,267.8c0.9,0,1.6,0.5,2.2,1.4s0.8,2.2,0.8,3.8c0,1.1-0.1,2-0.4,2.7s-0.6,1.4-1,1.8s-0.9,0.6-1.5,0.6 c-0.3,0-0.6,0-0.8-0.1s-0.5-0.3-0.7-0.5s-0.4-0.5-0.6-0.8H504c0,0.4,0.1,0.8,0.1,1.1s0,0.6,0,0.8v3.7h-2.9V268h2.3l0.4,1.3h0.1 c0.2-0.4,0.4-0.7,0.6-0.9s0.4-0.3,0.7-0.4S505.9,267.8,506.1,267.8z M505.2,270.3c-0.3,0-0.5,0.1-0.6,0.3s-0.3,0.4-0.4,0.8 s-0.1,0.9-0.1,1.5v0.6c0,0.5,0,1,0.1,1.3s0.2,0.6,0.4,0.7s0.4,0.2,0.6,0.2c0.2,0,0.4-0.1,0.6-0.3s0.3-0.5,0.3-0.9 s0.1-0.9,0.1-1.4c0-0.9-0.1-1.6-0.3-2.1S505.5,270.3,505.2,270.3z"/>
      </g>
    </g>
    <g>
      <g>
        <path d="M466.6,109c0,1.1-0.1,2-0.3,2.9s-0.5,1.5-0.9,2.1s-0.9,1-1.5,1.3s-1.3,0.4-2.1,0.4c-0.8,0-1.5-0.1-2.1-0.4 s-1.1-0.7-1.5-1.3s-0.7-1.3-0.9-2.1s-0.3-1.8-0.3-2.9c0-1.4,0.2-2.6,0.6-3.6s0.9-1.7,1.7-2.2s1.6-0.8,2.7-0.8 c1.1,0,2,0.2,2.7,0.7s1.3,1.2,1.6,2.2S466.6,107.6,466.6,109z M460.1,109c0,0.9,0.1,1.6,0.2,2.2s0.3,1,0.6,1.3s0.6,0.4,0.9,0.4 c0.4,0,0.7-0.1,1-0.4s0.4-0.7,0.6-1.3s0.2-1.3,0.2-2.2c0-1.4-0.1-2.4-0.4-3s-0.7-1-1.3-1c-0.4,0-0.7,0.1-0.9,0.4 s-0.4,0.7-0.6,1.3S460.1,108.1,460.1,109z"/>
        <path d="M473.1,105.3c0.1,0,0.2,0,0.4,0s0.3,0,0.5,0.1l-0.2,3.1c-0.1,0-0.2-0.1-0.4-0.1s-0.3,0-0.5,0c-0.3,0-0.5,0-0.7,0.1 s-0.4,0.2-0.5,0.4s-0.2,0.4-0.3,0.6s-0.1,0.5-0.1,0.9v5h-2.9v-10h2.2l0.4,1.6h0.1c0.1-0.3,0.3-0.5,0.5-0.8s0.4-0.5,0.7-0.7 S472.8,105.3,473.1,105.3z"/>
        <path d="M478.9,105.3c1,0,1.8,0.3,2.4,0.9s0.9,1.5,0.9,2.7v6.5H480l-0.5-1.3h-0.1c-0.2,0.3-0.4,0.6-0.7,0.8s-0.5,0.4-0.8,0.5 s-0.7,0.2-1.1,0.2c-0.6,0-1-0.2-1.4-0.5s-0.6-0.7-0.8-1.2s-0.2-1-0.2-1.5c0-1.1,0.3-1.9,0.9-2.4s1.4-0.8,2.5-0.9l1.3-0.1v-0.3 c0-0.4-0.1-0.7-0.2-0.9s-0.4-0.3-0.7-0.3c-0.3,0-0.6,0.1-1,0.2s-0.7,0.3-1.2,0.6l-0.8-2.2c0.5-0.3,1-0.5,1.6-0.7 S478.2,105.3,478.9,105.3z M479.2,111l-0.5,0c-0.4,0-0.7,0.1-0.9,0.3s-0.3,0.5-0.3,0.9c0,0.3,0.1,0.6,0.2,0.8s0.3,0.3,0.5,0.3 c0.3,0,0.5-0.1,0.7-0.4s0.3-0.6,0.3-1V111z"/>
        <path d="M488.9,105.3c0.9,0,1.5,0.3,2,1s0.7,1.5,0.7,2.7v6.5h-2.9v-5.5c0-0.7-0.1-1.2-0.2-1.5s-0.3-0.5-0.7-0.5 c-0.4,0-0.7,0.2-0.8,0.7s-0.2,1.2-0.2,2.3v4.6h-2.9v-10h2.3l0.3,1.2h0.2c0.2-0.3,0.3-0.6,0.5-0.8s0.5-0.4,0.7-0.5 S488.5,105.3,488.9,105.3z"/>
        <path d="M496.3,119.8c-1.2,0-2.1-0.2-2.7-0.7s-1-1.2-1-2.1c0-0.5,0.2-1,0.5-1.4s0.8-0.7,1.4-0.9c-0.3-0.1-0.5-0.3-0.7-0.5 s-0.3-0.6-0.3-0.9c0-0.4,0.1-0.7,0.3-0.9s0.4-0.5,0.7-0.7c-0.4-0.3-0.7-0.6-0.9-1.2s-0.3-1.1-0.3-1.7c0-0.7,0.1-1.4,0.4-1.9 s0.7-0.9,1.2-1.2s1.2-0.4,2-0.4c0.2,0,0.4,0,0.6,0s0.3,0.1,0.5,0.1s0.2,0.1,0.3,0.1h3.1v1.7l-1.1,0.3c0.1,0.2,0.1,0.4,0.2,0.6 s0,0.4,0,0.7c0,1.1-0.3,1.9-0.9,2.5s-1.5,0.9-2.7,0.9c-0.3,0-0.6,0-0.7-0.1c-0.1,0.1-0.1,0.1-0.2,0.2s-0.1,0.2-0.1,0.3 c0,0.1,0,0.2,0.1,0.3s0.2,0.1,0.3,0.2s0.3,0.1,0.6,0.1h1.8c0.8,0,1.5,0.2,1.9,0.7s0.7,1.1,0.7,2.1c0,1.2-0.4,2.2-1.2,2.8 S497.9,119.8,496.3,119.8z M496.5,117.7c0.5,0,0.8,0,1.1-0.1s0.5-0.2,0.6-0.4s0.2-0.4,0.2-0.6c0-0.2,0-0.3-0.1-0.4 s-0.2-0.2-0.3-0.2s-0.4-0.1-0.7-0.1h-1.4c-0.1,0-0.3,0-0.3,0.1s-0.2,0.2-0.2,0.3s-0.1,0.3-0.1,0.5c0,0.3,0.1,0.5,0.3,0.7 S496.1,117.7,496.5,117.7z M496.8,110.3c0.2,0,0.4-0.1,0.5-0.4s0.2-0.6,0.2-1.1c0-0.5-0.1-0.9-0.2-1.1s-0.3-0.4-0.5-0.4 c-0.2,0-0.4,0.1-0.5,0.4s-0.2,0.6-0.2,1.1c0,0.5,0.1,0.9,0.2,1.1S496.6,110.3,496.8,110.3z"/>
        <path d="M510.1,105.5v10h-2.3l-0.3-1.2h-0.1c-0.2,0.3-0.3,0.6-0.6,0.8s-0.5,0.4-0.7,0.5s-0.6,0.2-0.9,0.2c-0.6,0-1.1-0.1-1.5-0.4 s-0.7-0.7-0.9-1.2s-0.3-1.2-0.3-2v-6.5h2.9v5.5c0,0.7,0.1,1.2,0.2,1.5s0.3,0.5,0.6,0.5c0.4,0,0.6-0.1,0.8-0.3s0.3-0.5,0.3-0.9 s0.1-0.9,0.1-1.4v-4.9H510.1z"/>
        <path d="M515.8,113.1c0.2,0,0.4,0,0.6-0.1s0.4-0.1,0.7-0.3v2.3c-0.3,0.2-0.7,0.3-1,0.4s-0.7,0.1-1.1,0.1c-0.7,0-1.2-0.1-1.6-0.4 s-0.7-0.6-0.9-1.1s-0.3-1.2-0.3-1.9v-4.3h-1v-1.5l1.3-0.8l0.7-2.1h2v2h1.9v2.4H515v4.2c0,0.3,0.1,0.6,0.2,0.7 S515.5,113.1,515.8,113.1z"/>
        <path d="M522.2,105.3c1,0,1.8,0.3,2.4,0.9s0.9,1.5,0.9,2.7v6.5h-2.1l-0.5-1.3h-0.1c-0.2,0.3-0.4,0.6-0.7,0.8s-0.5,0.4-0.8,0.5 s-0.7,0.2-1.1,0.2c-0.6,0-1-0.2-1.4-0.5s-0.6-0.7-0.8-1.2s-0.2-1-0.2-1.5c0-1.1,0.3-1.9,0.9-2.4s1.4-0.8,2.5-0.9l1.3-0.1v-0.3 c0-0.4-0.1-0.7-0.2-0.9s-0.4-0.3-0.7-0.3c-0.3,0-0.6,0.1-1,0.2s-0.7,0.3-1.2,0.6l-0.8-2.2c0.5-0.3,1-0.5,1.6-0.7 S521.5,105.3,522.2,105.3z M522.5,111l-0.5,0c-0.4,0-0.7,0.1-0.9,0.3s-0.3,0.5-0.3,0.9c0,0.3,0.1,0.6,0.2,0.8s0.3,0.3,0.5,0.3 c0.3,0,0.5-0.1,0.7-0.4s0.3-0.6,0.3-1V111z"/>
        <path d="M532.2,105.3c0.9,0,1.5,0.3,2,1s0.7,1.5,0.7,2.7v6.5H532v-5.5c0-0.7-0.1-1.2-0.2-1.5s-0.3-0.5-0.7-0.5 c-0.4,0-0.7,0.2-0.8,0.7s-0.2,1.2-0.2,2.3v4.6h-2.9v-10h2.3l0.3,1.2h0.2c0.2-0.3,0.3-0.6,0.5-0.8s0.5-0.4,0.7-0.5 S531.8,105.3,532.2,105.3z"/>
      </g>
    </g>
    <g>
      <g>
        <path d="M467.2,180.7h4.5v6.9c-0.7,0.3-1.3,0.5-2,0.6s-1.4,0.2-2.1,0.2c-1.1,0-1.9-0.3-2.7-0.8s-1.3-1.3-1.7-2.3 s-0.6-2.2-0.6-3.6c0-1.4,0.2-2.6,0.7-3.5s1.1-1.7,1.9-2.3s1.8-0.8,3-0.8c0.7,0,1.3,0.1,1.9,0.2s1.1,0.3,1.5,0.6l-0.9,2.5 c-0.4-0.2-0.7-0.4-1.1-0.5s-0.8-0.2-1.3-0.2c-0.5,0-1,0.2-1.4,0.5s-0.6,0.8-0.8,1.4s-0.3,1.3-0.3,2.2c0,0.8,0.1,1.6,0.2,2.1 s0.4,1,0.7,1.3s0.6,0.4,1.1,0.4c0.2,0,0.3,0,0.5,0s0.3-0.1,0.5-0.1v-2.4h-1.5V180.7z"/>
        <path d="M481.3,183.3c0,0.6-0.1,1.3-0.2,1.9s-0.4,1.2-0.7,1.7s-0.7,0.9-1.3,1.2s-1.2,0.4-1.9,0.4c-0.7,0-1.3-0.1-1.8-0.4 s-0.9-0.7-1.3-1.2s-0.6-1-0.7-1.7s-0.2-1.3-0.2-1.9c0-1,0.1-1.8,0.4-2.6s0.7-1.4,1.3-1.9s1.4-0.7,2.4-0.7c0.8,0,1.5,0.2,2.1,0.6 s1.1,1,1.4,1.7S481.3,182.2,481.3,183.3z M476.1,183.3c0,0.6,0,1.1,0.1,1.5s0.2,0.7,0.4,0.9s0.4,0.3,0.6,0.3 c0.3,0,0.5-0.1,0.7-0.3s0.3-0.5,0.3-0.9s0.1-0.9,0.1-1.5s0-1.1-0.1-1.5s-0.2-0.7-0.3-0.9s-0.4-0.3-0.7-0.3 c-0.4,0-0.7,0.2-0.8,0.7S476.1,182.4,476.1,183.3z"/>
        <path d="M487.7,178.1c0.1,0,0.2,0,0.4,0s0.3,0,0.5,0.1l-0.2,3.1c-0.1,0-0.2-0.1-0.4-0.1s-0.3,0-0.5,0c-0.3,0-0.5,0-0.7,0.1 s-0.4,0.2-0.5,0.4s-0.2,0.4-0.3,0.6s-0.1,0.5-0.1,0.9v5h-2.9v-10h2.2l0.4,1.6h0.1c0.1-0.3,0.3-0.5,0.5-0.8s0.4-0.5,0.7-0.7 S487.3,178.1,487.7,178.1z"/>
        <path d="M491,174.3c0.5,0,0.9,0.1,1.2,0.4s0.4,0.6,0.4,1.1s-0.1,0.9-0.4,1.1s-0.6,0.4-1.2,0.4c-0.5,0-0.9-0.1-1.2-0.4 s-0.4-0.6-0.4-1.1c0-0.5,0.1-0.9,0.4-1.2S490.5,174.3,491,174.3z M492.5,178.3v10h-2.9v-10H492.5z"/>
        <path d="M497.2,188.3h-2.9v-13.7h2.9V188.3z"/>
        <path d="M502,188.3H499v-13.7h2.9V188.3z"/>
        <path d="M507.7,178.1c1,0,1.8,0.3,2.4,0.9s0.9,1.5,0.9,2.7v6.5h-2.1l-0.5-1.3h-0.1c-0.2,0.3-0.4,0.6-0.7,0.8s-0.5,0.4-0.8,0.5 s-0.7,0.2-1.1,0.2c-0.6,0-1-0.2-1.4-0.5s-0.6-0.7-0.8-1.2s-0.2-1-0.2-1.5c0-1.1,0.3-1.9,0.9-2.4s1.4-0.8,2.5-0.9l1.3-0.1v-0.3 c0-0.4-0.1-0.7-0.2-0.9s-0.4-0.3-0.7-0.3c-0.3,0-0.6,0.1-1,0.2s-0.7,0.3-1.2,0.6l-0.8-2.2c0.5-0.3,1-0.5,1.6-0.7 S507,178.1,507.7,178.1z M508,183.8l-0.5,0c-0.4,0-0.7,0.1-0.9,0.3s-0.3,0.5-0.3,0.9c0,0.3,0.1,0.6,0.2,0.8s0.3,0.3,0.5,0.3 c0.3,0,0.5-0.1,0.7-0.4s0.3-0.6,0.3-1V183.8z"/>
      </g>
    </g>
    <path class="st4" d="M442.1,207.1h-2.5"/>
    <path class="st4" d="M439.6,207.1h-71.4"/>
    <g>
      <path class="st4" d="M442.1,177.1h-2.5"/>
      <path class="st4" d="M439.6,177.1h-35.7"/>
    </g>
    <g>
      <path class="st4" d="M442.1,147.1h-2.5"/>
      <path class="st4" d="M439.6,147.1h-35.7"/>
    </g>
    <line class="st4" x1="403.9" y1="162.1" x2="368.2" y2="162.1"/>
    <line class="st4" x1="403.9" y1="177.1" x2="403.9" y2="147.1"/>
    <line class="st4" x1="368.7" y1="207.5" x2="368.7" y2="161.7"/>
  </g>
  <g>
    <line class="st0" x1="1231.4" y1="302.2" x2="1231.4" y2="389.1"/>
    <g id="mainHolder_00000023997330057812959290000018057918818128838829_" transform="translate(-24.64286,72)">
      <g id="rangeHolder_00000155109700042854008870000004061081882100869053_"/>
      <g id="pruningHolder_00000153674122747737816350000007339081628581304506_"/>
      <g id="treeHolder_00000173865807001750701240000014342160314962252691_">
        <g>
          <path class="st1" d="M1319.5,333.1"/>
        </g>
        <g>
          <path class="st4" d="M1319.5,183.1"/>
        </g>
        <g>
          <path class="st2" d="M1393.4,153.1h-2.5"/>
          <path class="st3" d="M1355.2,153.1"/>
          <path class="st3" d="M1390.9,153.1"/>
        </g>
        <g>
          <path class="st2" d="M1393.4,123.1h-2.5"/>
          <path class="st3" d="M1355.2,123.1"/>
          <path class="st3" d="M1390.9,123.1"/>
        </g>
        <g>
          <path class="st2" d="M1393.4,93.1h-2.5"/>
          <path class="st3" d="M1319.5,93.1"/>
          <path class="st3" d="M1390.9,93.1"/>
        </g>
        <g>
          <path class="st2" d="M1393.4,63.1h-2.5"/>
          <path class="st3" d="M1355.2,63.1"/>
          <path class="st3" d="M1390.9,63.1"/>
        </g>
        <g>
          <path class="st2" d="M1393.4,33.1h-2.5"/>
          <path class="st3" d="M1355.2,33.1"/>
          <path class="st3" d="M1390.9,33.1"/>
        </g>
        <g>
          <path class="st2" d="M1393.4,3.1h-2.5"/>
          <path class="st3" d="M1319.5,3.1"/>
          <path class="st3" d="M1390.9,3.1"/>
        </g>
        <g>
          <path class="st3" d="M1355.2,63.1"/>
        </g>
        <g>
          <path class="st4" d="M1390.9,42.8h-322.6"/>
        </g>
        <g>
          <path class="st3" d="M1355.2,153.1"/>
        </g>
        <g>
          <path class="st4" d="M1390.9,115.6h-251.2"/>
        </g>
        <g>
          <path class="st4" d="M1319.5,228.1"/>
        </g>
        <g>
          <path class="st1" d="M1390.9,187.6l-134.9-0.9"/>
        </g>
        <g>
          <path class="st1" d="M1319.5,288.1"/>
        </g>
        <g>
          <path class="st1" d="M1391,265.7l-134.9-0.9"/>
        </g>
        <g>
          <path class="st1" d="M1256.1,264.8l-0.1-78"/>
        </g>
        <g>
          <path class="st4" d="M1139.6,172.9h-71.4 M1139.6,172.9l0.1-57.3"/>
        </g>
        <g>
          <path class="st4" d="M1068.2,172.9l0.1-130"/>
        </g>
      </g>
      <g id="scaleHolder_00000039122998942408086100000013538041414911434156_"/>
      <g id="bootstrapHolder_00000017480585251997546490000005535556142307774894_"/>
      <g id="branchlengthHolder_00000028283943182749785420000002931007155454274203_"/>
      <g id="branchIDHolder_00000078011982614102449290000012507513912459819921_"/>
      <g id="datasetHolder_00000132046222085200785750000011394581250484740748_"/>
    </g>
    <path class="st1" d="M1295.3,405.5"/>
    <path class="st4" d="M1294.9,254.6"/>
    <path class="st4" d="M1294.9,300.6"/>
    <g>
      <g>
        <line class="st5" x1="1047.925" y1="388.537" x2="1223.6" y2="388.5" style=""/>
        <g transform="matrix(1, 0, 0, 1, 29.554525, -1.527752)">
          <polygon points="1024.4 393.8 1022.7 390.1 1024.3 386.4 1014.9 390.2"/>
        </g>
        <g transform="matrix(1, 0, 0, 1, -1.068585, -0.711068)">
          <polygon points="1231.3,389.1 1220.6,393.3 1223.1,389.2 1220.5,385.1 &#9;&#9;&#9;&#9;"/>
        </g>
      </g>
    </g>
    <line class="st0" x1="1043.557" y1="244.9" x2="1043.557" y2="389.1"/>
    <g transform="matrix(1, 0, 0, 1, -39.629166, 1.28894)">
      <g>
        <path d="M1169.7,383.1c-1.6,0-2.9-0.6-3.9-1.7s-1.4-2.8-1.4-4.9c0-2.2,0.5-3.9,1.5-5s2.3-1.7,3.9-1.7c0.7,0,1.3,0.1,1.8,0.3 s0.9,0.4,1.3,0.7c0.4,0.3,0.7,0.6,0.9,1h0.1c0-0.2-0.1-0.6-0.1-1s0-0.8,0-1v-5.1h1.9v18.2h-1.6l-0.3-1.8h-0.1 c-0.2,0.4-0.5,0.7-0.9,1s-0.8,0.6-1.3,0.7S1170.4,383.1,1169.7,383.1z M1170,381.5c1.4,0,2.3-0.4,2.9-1.2 c0.6-0.8,0.9-1.9,0.9-3.5v-0.3c0-1.6-0.3-2.9-0.8-3.8s-1.5-1.3-3-1.3c-1.2,0-2.1,0.5-2.7,1.4s-0.9,2.2-0.9,3.8 c0,1.6,0.3,2.8,0.9,3.7C1167.9,381.2,1168.8,381.5,1170,381.5z"/>
        <path d="M1183.9,381.5c0.3,0,0.6,0,1-0.1s0.6-0.1,0.8-0.2v1.5c-0.2,0.1-0.5,0.2-0.9,0.3c-0.4,0.1-0.8,0.1-1.2,0.1 c-0.7,0-1.3-0.1-1.9-0.4s-1-0.6-1.3-1.2c-0.3-0.6-0.5-1.4-0.5-2.4v-7.6h-1.8v-0.9l1.8-0.8l0.8-2.8h1.2v3h3.8v1.5h-3.8v7.6 c0,0.8,0.2,1.4,0.6,1.8C1182.9,381.3,1183.3,381.5,1183.9,381.5z"/>
      </g>
    </g>
    <path class="st5" d="M1366.3,333.3"/>
    <path class="st5" d="M1366.3,261.3"/>
    <line class="st5" x1="1115.1" y1="300.6" x2="1231.3" y2="300.6"/>
    <line class="st5" x1="1114.9" y1="244.9" x2="1115.1" y2="300.6"/>
    <g>
      <g>
        <path d="M1385.2,341.5h-3.1v-5.4h-2.7v5.4h-3.1v-12.8h3.1v4.9h2.7v-4.9h3.1V341.5z"/>
        <path d="M1394.9,331.6v10h-2.3l-0.3-1.2h-0.1c-0.2,0.3-0.3,0.6-0.6,0.8s-0.5,0.4-0.7,0.5s-0.6,0.2-0.9,0.2 c-0.6,0-1.1-0.1-1.5-0.4s-0.7-0.7-0.9-1.2s-0.3-1.2-0.3-2v-6.5h2.9v5.5c0,0.7,0.1,1.2,0.2,1.5s0.3,0.5,0.6,0.5 c0.4,0,0.6-0.1,0.8-0.3s0.3-0.5,0.3-0.9s0.1-0.9,0.1-1.4v-4.9H1394.9z"/>
        <path d="M1406.4,331.4c0.9,0,1.6,0.3,2,0.9s0.7,1.5,0.7,2.8v6.5h-2.9V336c0-0.7-0.1-1.2-0.2-1.5s-0.3-0.5-0.6-0.5 c-0.4,0-0.7,0.2-0.8,0.7s-0.2,1.2-0.2,2.1v4.8h-2.9V336c0-0.4,0-0.8-0.1-1.1s-0.1-0.5-0.2-0.7s-0.3-0.2-0.4-0.2 c-0.3,0-0.5,0.1-0.6,0.3s-0.3,0.5-0.3,1s-0.1,1-0.1,1.8v4.5h-2.9v-10h2.3l0.3,1.2h0.2c0.1-0.3,0.3-0.6,0.5-0.8s0.5-0.4,0.8-0.5 s0.7-0.2,1.1-0.2c0.6,0,1.1,0.1,1.4,0.4s0.6,0.6,0.7,0.9h0.2c0.2-0.4,0.5-0.7,0.9-1S1405.9,331.4,1406.4,331.4z"/>
        <path d="M1414.8,331.4c1,0,1.8,0.3,2.4,0.9s0.9,1.5,0.9,2.7v6.5h-2.1l-0.5-1.3h-0.1c-0.2,0.3-0.4,0.6-0.7,0.8s-0.5,0.4-0.8,0.5 s-0.7,0.2-1.1,0.2c-0.6,0-1-0.2-1.4-0.5s-0.6-0.7-0.8-1.2s-0.2-1-0.2-1.5c0-1.1,0.3-1.9,0.9-2.4s1.4-0.8,2.5-0.9l1.3-0.1v-0.3 c0-0.4-0.1-0.7-0.2-0.9s-0.4-0.3-0.7-0.3c-0.3,0-0.6,0.1-1,0.2s-0.7,0.3-1.2,0.6l-0.8-2.2c0.5-0.3,1-0.5,1.6-0.7 S1414.1,331.4,1414.8,331.4z M1415.1,337.1l-0.5,0c-0.4,0-0.7,0.1-0.9,0.3s-0.3,0.5-0.3,0.9c0,0.3,0.1,0.6,0.2,0.8 s0.3,0.3,0.5,0.3c0.3,0,0.5-0.1,0.7-0.4s0.3-0.6,0.3-1V337.1z"/>
        <path d="M1424.8,331.4c0.9,0,1.5,0.3,2,1s0.7,1.5,0.7,2.7v6.5h-2.9V336c0-0.7-0.1-1.2-0.2-1.5s-0.3-0.5-0.7-0.5 c-0.4,0-0.7,0.2-0.8,0.7s-0.2,1.2-0.2,2.3v4.6h-2.9v-10h2.3l0.3,1.2h0.2c0.2-0.3,0.3-0.6,0.5-0.8s0.5-0.4,0.7-0.5 S1424.4,331.4,1424.8,331.4z"/>
        <path d="M1435.1,338.5c0,0.7-0.1,1.3-0.4,1.8s-0.7,0.8-1.2,1.1s-1.1,0.4-1.8,0.4c-0.5,0-1,0-1.4-0.1s-0.9-0.2-1.4-0.4v-2.8 c0.4,0.2,0.8,0.4,1.2,0.6s0.9,0.2,1.3,0.2c0.3,0,0.5,0,0.6-0.1s0.2-0.2,0.2-0.4c0-0.1,0-0.2-0.1-0.3s-0.2-0.2-0.4-0.4 s-0.5-0.3-1-0.6c-0.4-0.2-0.7-0.5-1-0.8s-0.5-0.6-0.6-1s-0.2-0.8-0.2-1.3c0-0.9,0.3-1.6,0.8-2.2s1.4-0.8,2.4-0.8 c0.5,0,1,0.1,1.5,0.2s0.9,0.4,1.4,0.6l-0.7,2.2c-0.3-0.2-0.6-0.4-0.9-0.5s-0.7-0.2-1-0.2c-0.2,0-0.4,0-0.5,0.1s-0.1,0.2-0.1,0.4 c0,0.1,0,0.2,0.1,0.3s0.2,0.2,0.4,0.3s0.5,0.3,0.9,0.6c0.4,0.2,0.8,0.5,1.1,0.8s0.5,0.6,0.7,1S1435.1,337.9,1435.1,338.5z"/>
      </g>
    </g>
    <g>
      <g>
        <path d="M1381.1,254.7c-0.3,0-0.6,0.1-0.8,0.3s-0.4,0.5-0.6,0.8s-0.3,0.8-0.4,1.3s-0.1,1.1-0.1,1.7c0,0.9,0.1,1.6,0.2,2.2 s0.4,1,0.7,1.3s0.7,0.4,1.1,0.4c0.4,0,0.8-0.1,1.2-0.2s0.8-0.3,1.2-0.6v2.7c-0.4,0.2-0.9,0.4-1.3,0.5s-1,0.2-1.5,0.2 c-1,0-1.9-0.3-2.6-0.8s-1.2-1.2-1.6-2.2s-0.5-2.2-0.5-3.6c0-1,0.1-1.9,0.3-2.7s0.5-1.5,1-2.1s0.9-1,1.5-1.4s1.3-0.5,2-0.5 c0.6,0,1.1,0.1,1.6,0.2s1,0.4,1.6,0.7l-0.8,2.5c-0.3-0.2-0.7-0.4-1-0.6S1381.4,254.7,1381.1,254.7z"/>
        <path d="M1388.2,251.4v2.5c0,0.4,0,0.8-0.1,1.2s-0.1,0.8-0.2,1.2h0.2c0.1-0.3,0.3-0.6,0.5-0.8s0.4-0.4,0.7-0.5s0.6-0.2,0.9-0.2 c0.6,0,1.1,0.1,1.5,0.4s0.7,0.7,0.9,1.2s0.3,1.2,0.3,2v6.5h-2.9v-5.5c0-0.7-0.1-1.2-0.2-1.5s-0.3-0.5-0.6-0.5 c-0.3,0-0.6,0.1-0.7,0.3s-0.3,0.5-0.3,1s-0.1,1-0.1,1.7v4.6h-2.9v-13.7H1388.2z"/>
        <path d="M1396.3,251.1c0.5,0,0.9,0.1,1.2,0.4s0.4,0.6,0.4,1.1s-0.1,0.9-0.4,1.1s-0.6,0.4-1.2,0.4c-0.5,0-0.9-0.1-1.2-0.4 s-0.4-0.6-0.4-1.1c0-0.5,0.1-0.9,0.4-1.2S1395.8,251.1,1396.3,251.1z M1397.8,255.2v10h-2.9v-10H1397.8z"/>
        <path d="M1409.4,255c0.9,0,1.6,0.3,2,0.9s0.7,1.5,0.7,2.8v6.5h-2.9v-5.5c0-0.7-0.1-1.2-0.2-1.5s-0.3-0.5-0.6-0.5 c-0.4,0-0.7,0.2-0.8,0.7s-0.2,1.2-0.2,2.1v4.8h-2.9v-5.5c0-0.4,0-0.8-0.1-1.1s-0.1-0.5-0.2-0.7s-0.3-0.2-0.4-0.2 c-0.3,0-0.5,0.1-0.6,0.3s-0.3,0.5-0.3,1s-0.1,1-0.1,1.8v4.5h-2.9v-10h2.3l0.3,1.2h0.2c0.1-0.3,0.3-0.6,0.5-0.8s0.5-0.4,0.8-0.5 s0.7-0.2,1.1-0.2c0.6,0,1.1,0.1,1.4,0.4s0.6,0.6,0.7,0.9h0.2c0.2-0.4,0.5-0.7,0.9-1S1408.8,255,1409.4,255z"/>
        <path d="M1418.8,255c0.9,0,1.6,0.5,2.2,1.4s0.8,2.2,0.8,3.8c0,1.1-0.1,2-0.4,2.7s-0.6,1.4-1,1.8s-0.9,0.6-1.5,0.6 c-0.3,0-0.6,0-0.8-0.1s-0.5-0.3-0.7-0.5s-0.4-0.5-0.6-0.8h-0.1c0,0.4,0.1,0.8,0.1,1.1s0,0.6,0,0.8v3.7h-2.9v-14.3h2.3l0.4,1.3 h0.1c0.2-0.4,0.4-0.7,0.6-0.9s0.4-0.3,0.7-0.4S1418.5,255,1418.8,255z M1417.8,257.4c-0.3,0-0.5,0.1-0.6,0.3s-0.3,0.4-0.4,0.8 s-0.1,0.9-0.1,1.5v0.6c0,0.5,0,1,0.1,1.3s0.2,0.6,0.4,0.7s0.4,0.2,0.6,0.2c0.2,0,0.4-0.1,0.6-0.3s0.3-0.5,0.3-0.9 s0.1-0.9,0.1-1.4c0-0.9-0.1-1.6-0.3-2.1S1418.2,257.4,1417.8,257.4z"/>
      </g>
    </g>
    <g>
      <g>
        <path d="M1385.8,114.6c0,1.1-0.1,2-0.3,2.9s-0.5,1.5-0.9,2.1s-0.9,1-1.5,1.3s-1.3,0.4-2.1,0.4c-0.8,0-1.5-0.1-2.1-0.4 s-1.1-0.7-1.5-1.3s-0.7-1.3-0.9-2.1s-0.3-1.8-0.3-2.9c0-1.4,0.2-2.6,0.6-3.6s0.9-1.7,1.7-2.2s1.6-0.8,2.7-0.8 c1.1,0,2,0.2,2.7,0.7s1.3,1.2,1.6,2.2S1385.8,113.1,1385.8,114.6z M1379.2,114.6c0,0.9,0.1,1.6,0.2,2.2s0.3,1,0.6,1.3 s0.6,0.4,0.9,0.4c0.4,0,0.7-0.1,1-0.4s0.4-0.7,0.6-1.3s0.2-1.3,0.2-2.2c0-1.4-0.1-2.4-0.4-3s-0.7-1-1.3-1c-0.4,0-0.7,0.1-0.9,0.4 s-0.4,0.7-0.6,1.3S1379.2,113.7,1379.2,114.6z"/>
        <path d="M1392.3,110.9c0.1,0,0.2,0,0.4,0s0.3,0,0.5,0.1l-0.2,3.1c-0.1,0-0.2-0.1-0.4-0.1s-0.3,0-0.5,0c-0.3,0-0.5,0-0.7,0.1 s-0.4,0.2-0.5,0.4s-0.2,0.4-0.3,0.6s-0.1,0.5-0.1,0.9v5h-2.9v-10h2.2l0.4,1.6h0.1c0.1-0.3,0.3-0.5,0.5-0.8s0.4-0.5,0.7-0.7 S1391.9,110.9,1392.3,110.9z"/>
        <path d="M1398,110.9c1,0,1.8,0.3,2.4,0.9s0.9,1.5,0.9,2.7v6.5h-2.1l-0.5-1.3h-0.1c-0.2,0.3-0.4,0.6-0.7,0.8s-0.5,0.4-0.8,0.5 s-0.7,0.2-1.1,0.2c-0.6,0-1-0.2-1.4-0.5s-0.6-0.7-0.8-1.2s-0.2-1-0.2-1.5c0-1.1,0.3-1.9,0.9-2.4s1.4-0.8,2.5-0.9l1.3-0.1v-0.3 c0-0.4-0.1-0.7-0.2-0.9s-0.4-0.3-0.7-0.3c-0.3,0-0.6,0.1-1,0.2s-0.7,0.3-1.2,0.6l-0.8-2.2c0.5-0.3,1-0.5,1.6-0.7 S1397.3,110.9,1398,110.9z M1398.3,116.6l-0.5,0c-0.4,0-0.7,0.1-0.9,0.3s-0.3,0.5-0.3,0.9c0,0.3,0.1,0.6,0.2,0.8s0.3,0.3,0.5,0.3 c0.3,0,0.5-0.1,0.7-0.4s0.3-0.6,0.3-1V116.6z"/>
        <path d="M1408,110.9c0.9,0,1.5,0.3,2,1s0.7,1.5,0.7,2.7v6.5h-2.9v-5.5c0-0.7-0.1-1.2-0.2-1.5s-0.3-0.5-0.7-0.5 c-0.4,0-0.7,0.2-0.8,0.7s-0.2,1.2-0.2,2.3v4.6h-2.9v-10h2.3l0.3,1.2h0.2c0.2-0.3,0.3-0.6,0.5-0.8s0.5-0.4,0.7-0.5 S1407.7,110.9,1408,110.9z"/>
        <path d="M1415.4,125.4c-1.2,0-2.1-0.2-2.7-0.7s-1-1.2-1-2.1c0-0.5,0.2-1,0.5-1.4s0.8-0.7,1.4-0.9c-0.3-0.1-0.5-0.3-0.7-0.5 s-0.3-0.6-0.3-0.9c0-0.4,0.1-0.7,0.3-0.9s0.4-0.5,0.7-0.7c-0.4-0.3-0.7-0.6-0.9-1.2s-0.3-1.1-0.3-1.7c0-0.7,0.1-1.4,0.4-1.9 s0.7-0.9,1.2-1.2s1.2-0.4,2-0.4c0.2,0,0.4,0,0.6,0s0.3,0.1,0.5,0.1s0.2,0.1,0.3,0.1h3.1v1.7l-1.1,0.3c0.1,0.2,0.1,0.4,0.2,0.6 s0,0.4,0,0.7c0,1.1-0.3,1.9-0.9,2.5s-1.5,0.9-2.7,0.9c-0.3,0-0.6,0-0.7-0.1c-0.1,0.1-0.1,0.1-0.2,0.2s-0.1,0.2-0.1,0.3 c0,0.1,0,0.2,0.1,0.3s0.2,0.1,0.3,0.2s0.3,0.1,0.6,0.1h1.8c0.8,0,1.5,0.2,1.9,0.7s0.7,1.1,0.7,2.1c0,1.2-0.4,2.2-1.2,2.8 S1417,125.4,1415.4,125.4z M1415.6,123.2c0.5,0,0.8,0,1.1-0.1s0.5-0.2,0.6-0.4s0.2-0.4,0.2-0.6c0-0.2,0-0.3-0.1-0.4 s-0.2-0.2-0.3-0.2s-0.4-0.1-0.7-0.1h-1.4c-0.1,0-0.3,0-0.3,0.1s-0.2,0.2-0.2,0.3s-0.1,0.3-0.1,0.5c0,0.3,0.1,0.5,0.3,0.7 S1415.2,123.2,1415.6,123.2z M1415.9,115.8c0.2,0,0.4-0.1,0.5-0.4s0.2-0.6,0.2-1.1c0-0.5-0.1-0.9-0.2-1.1s-0.3-0.4-0.5-0.4 c-0.2,0-0.4,0.1-0.5,0.4s-0.2,0.6-0.2,1.1c0,0.5,0.1,0.9,0.2,1.1S1415.7,115.8,1415.9,115.8z"/>
        <path d="M1429.2,111.1v10h-2.3l-0.3-1.2h-0.1c-0.2,0.3-0.3,0.6-0.6,0.8s-0.5,0.4-0.7,0.5s-0.6,0.2-0.9,0.2 c-0.6,0-1.1-0.1-1.5-0.4s-0.7-0.7-0.9-1.2s-0.3-1.2-0.3-2v-6.5h2.9v5.5c0,0.7,0.1,1.2,0.2,1.5s0.3,0.5,0.6,0.5 c0.4,0,0.6-0.1,0.8-0.3s0.3-0.5,0.3-0.9s0.1-0.9,0.1-1.4v-4.9H1429.2z"/>
        <path d="M1434.9,118.7c0.2,0,0.4,0,0.6-0.1s0.4-0.1,0.7-0.3v2.3c-0.3,0.2-0.7,0.3-1,0.4s-0.7,0.1-1.1,0.1c-0.7,0-1.2-0.1-1.6-0.4 s-0.7-0.6-0.9-1.1s-0.3-1.2-0.3-1.9v-4.3h-1v-1.5l1.3-0.8l0.7-2.1h2v2h1.9v2.4h-1.9v4.2c0,0.3,0.1,0.6,0.2,0.7 S1434.7,118.7,1434.9,118.7z"/>
        <path d="M1441.3,110.9c1,0,1.8,0.3,2.4,0.9s0.9,1.5,0.9,2.7v6.5h-2.1l-0.5-1.3h-0.1c-0.2,0.3-0.4,0.6-0.7,0.8s-0.5,0.4-0.8,0.5 s-0.7,0.2-1.1,0.2c-0.6,0-1-0.2-1.4-0.5s-0.6-0.7-0.8-1.2s-0.2-1-0.2-1.5c0-1.1,0.3-1.9,0.9-2.4s1.4-0.8,2.5-0.9l1.3-0.1v-0.3 c0-0.4-0.1-0.7-0.2-0.9s-0.4-0.3-0.7-0.3c-0.3,0-0.6,0.1-1,0.2s-0.7,0.3-1.2,0.6l-0.8-2.2c0.5-0.3,1-0.5,1.6-0.7 S1440.6,110.9,1441.3,110.9z M1441.6,116.6l-0.5,0c-0.4,0-0.7,0.1-0.9,0.3s-0.3,0.5-0.3,0.9c0,0.3,0.1,0.6,0.2,0.8 s0.3,0.3,0.5,0.3c0.3,0,0.5-0.1,0.7-0.4s0.3-0.6,0.3-1V116.6z"/>
        <path d="M1451.3,110.9c0.9,0,1.5,0.3,2,1s0.7,1.5,0.7,2.7v6.5h-2.9v-5.5c0-0.7-0.1-1.2-0.2-1.5s-0.3-0.5-0.7-0.5 c-0.4,0-0.7,0.2-0.8,0.7s-0.2,1.2-0.2,2.3v4.6h-2.9v-10h2.3l0.3,1.2h0.2c0.2-0.3,0.3-0.6,0.5-0.8s0.5-0.4,0.7-0.5 S1450.9,110.9,1451.3,110.9z"/>
      </g>
    </g>
    <g>
      <g>
        <path d="M1380.6,184.3h4.5v6.9c-0.7,0.3-1.3,0.5-2,0.6s-1.4,0.2-2.1,0.2c-1.1,0-2-0.3-2.7-0.8s-1.3-1.3-1.7-2.3s-0.6-2.2-0.6-3.6 c0-1.4,0.2-2.6,0.7-3.5s1.1-1.7,1.9-2.3s1.8-0.8,3-0.8c0.7,0,1.3,0.1,1.8,0.2s1.1,0.3,1.5,0.6l-0.9,2.5c-0.4-0.2-0.7-0.4-1.1-0.5 s-0.8-0.2-1.3-0.2c-0.5,0-1,0.2-1.4,0.5s-0.6,0.8-0.8,1.4s-0.3,1.3-0.3,2.2c0,0.8,0.1,1.6,0.2,2.1s0.4,1,0.7,1.3s0.6,0.4,1.1,0.4 c0.2,0,0.3,0,0.5,0s0.3-0.1,0.5-0.1v-2.4h-1.5V184.3z"/>
        <path d="M1394.7,186.8c0,0.6-0.1,1.3-0.2,1.9s-0.4,1.2-0.7,1.7s-0.7,0.9-1.3,1.2s-1.2,0.4-1.9,0.4c-0.7,0-1.3-0.1-1.8-0.4 s-0.9-0.7-1.3-1.2s-0.6-1-0.7-1.7s-0.2-1.3-0.2-1.9c0-1,0.1-1.8,0.4-2.6s0.7-1.4,1.3-1.9s1.4-0.7,2.4-0.7c0.8,0,1.5,0.2,2.1,0.6 s1.1,1,1.4,1.7S1394.7,185.7,1394.7,186.8z M1389.5,186.8c0,0.6,0,1.1,0.1,1.5s0.2,0.7,0.4,0.9s0.4,0.3,0.6,0.3 c0.3,0,0.5-0.1,0.7-0.3s0.3-0.5,0.3-0.9s0.1-0.9,0.1-1.5s0-1.1-0.1-1.5s-0.2-0.7-0.3-0.9s-0.4-0.3-0.7-0.3 c-0.4,0-0.7,0.2-0.8,0.7S1389.5,185.9,1389.5,186.8z"/>
        <path d="M1401.1,181.7c0.1,0,0.2,0,0.4,0s0.3,0,0.5,0.1l-0.2,3.1c-0.1,0-0.2-0.1-0.4-0.1s-0.3,0-0.5,0c-0.3,0-0.5,0-0.7,0.1 s-0.4,0.2-0.5,0.4s-0.2,0.4-0.3,0.6s-0.1,0.5-0.1,0.9v5h-2.9v-10h2.2l0.4,1.6h0.1c0.1-0.3,0.3-0.5,0.5-0.8s0.4-0.5,0.7-0.7 S1400.7,181.7,1401.1,181.7z"/>
        <path d="M1404.4,177.8c0.5,0,0.9,0.1,1.2,0.4s0.4,0.6,0.4,1.1s-0.1,0.9-0.4,1.1s-0.6,0.4-1.2,0.4c-0.5,0-0.9-0.1-1.2-0.4 s-0.4-0.6-0.4-1.1c0-0.5,0.1-0.9,0.4-1.2S1403.8,177.8,1404.4,177.8z M1405.8,181.8v10h-2.9v-10H1405.8z"/>
        <path d="M1410.6,191.8h-2.9v-13.7h2.9V191.8z"/>
        <path d="M1415.3,191.8h-2.9v-13.7h2.9V191.8z"/>
        <path d="M1421,181.7c1,0,1.8,0.3,2.4,0.9s0.9,1.5,0.9,2.7v6.5h-2.1l-0.5-1.3h-0.1c-0.2,0.3-0.4,0.6-0.7,0.8s-0.5,0.4-0.8,0.5 s-0.7,0.2-1.1,0.2c-0.6,0-1-0.2-1.4-0.5s-0.6-0.7-0.8-1.2s-0.2-1-0.2-1.5c0-1.1,0.3-1.9,0.9-2.4s1.4-0.8,2.5-0.9l1.3-0.1v-0.3 c0-0.4-0.1-0.7-0.2-0.9s-0.4-0.3-0.7-0.3c-0.3,0-0.6,0.1-1,0.2s-0.7,0.3-1.2,0.6l-0.8-2.2c0.5-0.3,1-0.5,1.6-0.7 S1420.4,181.7,1421,181.7z M1421.4,187.3l-0.5,0c-0.4,0-0.7,0.1-0.9,0.3s-0.3,0.5-0.3,0.9c0,0.3,0.1,0.6,0.2,0.8s0.3,0.3,0.5,0.3 c0.3,0,0.5-0.1,0.7-0.4s0.3-0.6,0.3-1V187.3z"/>
      </g>
    </g>
  </g>
  <path class="st4" d="M580.9,244.4l0.1-130"/>
  <g>
    <g transform="matrix(1, 0, 0, 1, 0, -1)">
      <line class="st0" x1="906.2" y1="297.1" x2="906.2" y2="452.1"/>
      <g id="mainHolder_00000129918331417359212420000009233018231209718198_" transform="translate(-24.64286,72)">
        <g id="rangeHolder_00000016061009325217387870000014043262102237229224_"/>
        <g id="pruningHolder_00000036969332928831898440000010589210078469994431_"/>
        <g id="treeHolder_00000055699664572202820840000006952390382578099899_">
          <g>
            <path class="st1" d="M856.8,329.6"/>
          </g>
          <g>
            <path class="st1" d="M930.7,239.6h-2.5"/>
            <path class="st1" d="M928.2,239.6h-35.7"/>
          </g>
          <g>
            <path class="st1" d="M930.7,209.6h-2.5"/>
            <path class="st1" d="M928.2,209.6h-35.7"/>
          </g>
          <g>
            <path class="st1" d="M930.7,179.6h-2.5"/>
            <path class="st1" d="M928.2,179.6h-71.4"/>
          </g>
          <g>
            <path class="st2" d="M930.7,149.6h-2.5"/>
            <path class="st3" d="M892.5,149.6"/>
            <path class="st3" d="M928.2,149.6"/>
          </g>
          <g>
            <path class="st4" d="M856.8,89.6"/>
          </g>
          <g>
            <path class="st2" d="M930.7,29.6h-2.5"/>
            <path class="st3" d="M892.5,29.6"/>
            <path class="st3" d="M928.2,29.6"/>
          </g>
          <g>
            <path class="st2" d="M930.7-0.4h-2.5"/>
            <path class="st3" d="M856.8-0.4"/>
            <path class="st3" d="M928.2-0.4"/>
          </g>
          <g>
            <path class="st3" d="M605.6,39.3"/>
          </g>
          <g>
            <path class="st3" d="M892.5,149.6"/>
          </g>
          <g>
            <path class="st3" d="M677,112.1"/>
            <path class="st3" d="M855.5,112.1"/>
          </g>
          <g>
            <path class="st1" d="M892.5,224.6h-35.7 M892.5,239.6v-30"/>
          </g>
          <g>
            <path class="st3" d="M856.8,202.1H748.4"/>
          </g>
          <g>
            <path class="st1" d="M856.8,284.6"/>
          </g>
          <g>
            <path class="st5" d="M930.7,307.1H748.4"/>
          </g>
          <g>
            <path class="st3" d="M748.4,254.6H677 M748.4,307.1v-105"/>
          </g>
          <g>
            <path class="st3" d="M605.6,183.4 M677,183.4 M677,254.6v-82.2"/>
          </g>
          <g>
            <path class="st3" d="M605.6,39.4"/>
            <path class="st3" d="M605.6,183.4"/>
          </g>
        </g>
        <g id="scaleHolder_00000141446291311251347060000014257508073602512562_"/>
        <g id="bootstrapHolder_00000181766516858912658420000009955196668959634335_"/>
        <g id="branchlengthHolder_00000057125095645043353580000004202717087684797323_"/>
        <g id="branchIDHolder_00000039131805556504793640000010399286363506743426_"/>
        <g id="datasetHolder_00000025442514683631229650000014876017864635592383_"/>
      </g>
      <line class="st1" x1="832.2" y1="297.1" x2="832.2" y2="251.1"/>
      <g style="" transform="matrix(1.411339, 0, 0, 0.954057, -278.316559, -25.012999)">
        <g>
          <line class="st5" x1="615.243" y1="502.08" x2="827.807" y2="502.08"/>
          <g transform="matrix(1, 0, 0, 1, 5.909596, 52.635784)">
            <polygon points="619.523 453.151 616.923 449.451 619.423 445.751 604.923 449.551"/>
          </g>
          <g transform="matrix(1, 0, 0, 1, 8.222985, 49.786095)">
            <polygon points="832.2,452.1 815.7,456.3 819.6,452.2 815.6,448.1 &#9;&#9;&#9;&#9;&#9;"/>
          </g>
        </g>
      </g>
      <line class="st0" x1="580.957" y1="244.961" x2="580.957" y2="448.5"/>
      <g>
        <g>
          <path d="M934.5,386.6h-3.1v-5.4h-2.7v5.4h-3.1v-12.8h3.1v4.9h2.7v-4.9h3.1V386.6z"/>
          <path d="M944.2,376.7v10h-2.3l-0.3-1.2h-0.1c-0.2,0.3-0.3,0.6-0.6,0.8s-0.5,0.4-0.7,0.5s-0.6,0.2-0.9,0.2 c-0.6,0-1.1-0.1-1.5-0.4s-0.7-0.7-0.9-1.2s-0.3-1.2-0.3-2v-6.5h2.9v5.5c0,0.7,0.1,1.2,0.2,1.5s0.3,0.5,0.6,0.5 c0.4,0,0.6-0.1,0.8-0.3s0.3-0.5,0.3-0.9s0.1-0.9,0.1-1.4v-4.9H944.2z"/>
          <path d="M955.7,376.5c0.9,0,1.6,0.3,2,0.9s0.7,1.5,0.7,2.8v6.5h-2.9v-5.5c0-0.7-0.1-1.2-0.2-1.5s-0.3-0.5-0.6-0.5 c-0.4,0-0.7,0.2-0.8,0.7s-0.2,1.2-0.2,2.1v4.8h-2.9v-5.5c0-0.4,0-0.8-0.1-1.1s-0.1-0.5-0.3-0.7s-0.3-0.2-0.4-0.2 c-0.3,0-0.5,0.1-0.6,0.3s-0.3,0.5-0.3,1s-0.1,1-0.1,1.8v4.5H946v-10h2.3l0.3,1.2h0.2c0.1-0.3,0.3-0.6,0.5-0.8s0.5-0.4,0.8-0.5 s0.7-0.2,1.1-0.2c0.6,0,1.1,0.1,1.4,0.4s0.6,0.6,0.7,0.9h0.2c0.2-0.4,0.5-0.7,0.9-1S955.2,376.5,955.7,376.5z"/>
          <path d="M964.1,376.5c1,0,1.8,0.3,2.4,0.9s0.9,1.5,0.9,2.7v6.5h-2.1l-0.5-1.3h-0.1c-0.2,0.3-0.4,0.6-0.7,0.8s-0.5,0.4-0.8,0.5 s-0.7,0.2-1.1,0.2c-0.6,0-1-0.2-1.4-0.5s-0.6-0.7-0.8-1.2c-0.2-0.5-0.2-1-0.2-1.5c0-1.1,0.3-1.9,0.9-2.4 c0.6-0.5,1.4-0.8,2.5-0.9l1.3-0.1V380c0-0.4-0.1-0.7-0.2-0.9s-0.4-0.3-0.7-0.3c-0.3,0-0.6,0.1-1,0.2s-0.7,0.3-1.2,0.6l-0.8-2.2 c0.5-0.3,1-0.5,1.6-0.7S963.4,376.5,964.1,376.5z M964.4,382.2l-0.5,0c-0.4,0-0.7,0.1-0.9,0.3s-0.3,0.5-0.3,0.9 c0,0.3,0.1,0.6,0.2,0.8s0.3,0.3,0.5,0.3c0.3,0,0.5-0.1,0.7-0.4s0.3-0.6,0.3-1V382.2z"/>
          <path d="M974.1,376.5c0.9,0,1.5,0.3,2,1s0.7,1.5,0.7,2.7v6.5h-2.9v-5.5c0-0.7-0.1-1.2-0.2-1.5s-0.3-0.5-0.7-0.5 c-0.4,0-0.7,0.2-0.8,0.7s-0.2,1.2-0.2,2.3v4.6h-2.9v-10h2.3l0.3,1.2h0.2c0.2-0.3,0.3-0.6,0.5-0.8s0.5-0.4,0.7-0.5 S973.7,376.5,974.1,376.5z"/>
          <path d="M984.4,383.6c0,0.7-0.1,1.3-0.4,1.8s-0.7,0.8-1.2,1.1s-1.1,0.4-1.8,0.4c-0.5,0-1,0-1.4-0.1s-0.9-0.2-1.4-0.4v-2.8 c0.4,0.2,0.8,0.4,1.2,0.6s0.9,0.2,1.3,0.2c0.3,0,0.5,0,0.6-0.1s0.2-0.2,0.2-0.4c0-0.1,0-0.2-0.1-0.3s-0.2-0.2-0.4-0.4 s-0.5-0.3-1-0.6c-0.4-0.2-0.7-0.5-1-0.8s-0.5-0.6-0.6-1s-0.2-0.8-0.2-1.3c0-0.9,0.3-1.6,0.8-2.2s1.4-0.8,2.4-0.8 c0.5,0,1,0.1,1.5,0.2s0.9,0.4,1.4,0.6l-0.7,2.2c-0.3-0.2-0.6-0.4-0.9-0.5s-0.7-0.2-1-0.2c-0.2,0-0.4,0-0.5,0.1s-0.1,0.2-0.1,0.4 c0,0.1,0,0.2,0.1,0.3s0.2,0.2,0.4,0.3s0.5,0.3,0.9,0.6c0.4,0.2,0.8,0.5,1.1,0.8s0.5,0.6,0.7,1S984.4,383,984.4,383.6z"/>
        </g>
      </g>
      <g>
        <g>
          <path d="M931,267.1c-0.3,0-0.6,0.1-0.8,0.3s-0.4,0.5-0.6,0.8s-0.3,0.8-0.4,1.3s-0.1,1.1-0.1,1.7c0,0.9,0.1,1.6,0.2,2.2 s0.4,1,0.7,1.3s0.7,0.4,1.1,0.4c0.4,0,0.8-0.1,1.2-0.2s0.8-0.3,1.2-0.6v2.7c-0.4,0.2-0.9,0.4-1.3,0.5s-1,0.2-1.5,0.2 c-1,0-1.9-0.3-2.6-0.8s-1.2-1.2-1.6-2.2s-0.5-2.2-0.5-3.6c0-1,0.1-1.9,0.3-2.7s0.5-1.5,1-2.1s0.9-1,1.5-1.4s1.3-0.5,2-0.5 c0.6,0,1.1,0.1,1.6,0.2s1,0.4,1.6,0.7l-0.8,2.5c-0.3-0.2-0.7-0.4-1-0.6S931.4,267.1,931,267.1z"/>
          <path d="M938.2,263.9v2.5c0,0.4,0,0.8-0.1,1.2s-0.1,0.8-0.2,1.2h0.2c0.1-0.3,0.3-0.6,0.5-0.8s0.4-0.4,0.7-0.5s0.6-0.2,0.9-0.2 c0.6,0,1.1,0.1,1.5,0.4s0.7,0.7,0.9,1.2s0.3,1.2,0.3,2v6.5h-2.9V272c0-0.7-0.1-1.2-0.2-1.5s-0.3-0.5-0.6-0.5 c-0.3,0-0.6,0.1-0.7,0.3s-0.3,0.5-0.3,1s-0.1,1-0.1,1.7v4.6h-2.9v-13.7H938.2z"/>
          <path d="M946.3,263.6c0.5,0,0.9,0.1,1.2,0.4s0.4,0.6,0.4,1.1s-0.1,0.9-0.4,1.1s-0.6,0.4-1.2,0.4c-0.5,0-0.9-0.1-1.2-0.4 s-0.4-0.6-0.4-1.1c0-0.5,0.1-0.9,0.4-1.2S945.8,263.6,946.3,263.6z M947.8,267.6v10h-2.9v-10H947.8z"/>
          <path d="M959.4,267.4c0.9,0,1.6,0.3,2,0.9s0.7,1.5,0.7,2.8v6.5h-2.9V272c0-0.7-0.1-1.2-0.2-1.5s-0.3-0.5-0.6-0.5 c-0.4,0-0.7,0.2-0.8,0.7s-0.2,1.2-0.2,2.1v4.8h-2.9V272c0-0.4,0-0.8-0.1-1.1s-0.1-0.5-0.3-0.7s-0.3-0.2-0.4-0.2 c-0.3,0-0.5,0.1-0.6,0.3s-0.3,0.5-0.3,1s-0.1,1-0.1,1.8v4.5h-2.9v-10h2.3l0.3,1.2h0.2c0.1-0.3,0.3-0.6,0.5-0.8s0.5-0.4,0.8-0.5 s0.7-0.2,1.1-0.2c0.6,0,1.1,0.1,1.4,0.4s0.6,0.6,0.7,0.9h0.2c0.2-0.4,0.5-0.7,0.9-1S958.8,267.4,959.4,267.4z"/>
          <path d="M968.8,267.4c0.9,0,1.6,0.5,2.2,1.4s0.8,2.2,0.8,3.8c0,1.1-0.1,2-0.4,2.7s-0.6,1.4-1,1.8s-0.9,0.6-1.5,0.6 c-0.3,0-0.6,0-0.8-0.1s-0.5-0.3-0.7-0.5s-0.4-0.5-0.6-0.8h-0.1c0,0.4,0.1,0.8,0.1,1.1s0,0.6,0,0.8v3.7h-2.9v-14.3h2.3l0.4,1.3 h0.1c0.2-0.4,0.4-0.7,0.6-0.9s0.4-0.3,0.7-0.4S968.5,267.4,968.8,267.4z M967.8,269.8c-0.3,0-0.5,0.1-0.6,0.3s-0.3,0.4-0.4,0.8 s-0.1,0.9-0.1,1.5v0.6c0,0.5,0,1,0.1,1.3s0.2,0.6,0.4,0.7s0.4,0.2,0.6,0.2c0.2,0,0.4-0.1,0.6-0.3s0.3-0.5,0.3-0.9 s0.1-0.9,0.1-1.4c0-0.9-0.1-1.6-0.3-2.1S968.1,269.8,967.8,269.8z"/>
        </g>
      </g>
      <path class="st4" d="M830.9,206.7"/>
      <path class="st4" d="M830.9,161.7"/>
      <path class="st4" d="M831.3,161.3"/>
      <path class="st4" d="M831.3,207.1"/>
    </g>
    <g>
      <path class="st2" d="M906.1,224.6h-2.5"/>
      <path class="st3" d="M867.9,224.6"/>
      <path class="st3" d="M903.6,224.6"/>
    </g>
    <g>
      <path class="st2" d="M906.1,194.6h-2.5"/>
      <path class="st3" d="M867.9,194.6"/>
      <path class="st3" d="M903.6,194.6"/>
    </g>
    <g>
      <path class="st2" d="M906.1,164.6h-2.5"/>
      <path class="st3" d="M832.2,164.6"/>
      <path class="st3" d="M903.6,164.6"/>
    </g>
    <g>
      <path class="st2" d="M906.1,134.6h-2.5"/>
      <path class="st3" d="M867.9,134.6"/>
      <path class="st3" d="M903.6,134.6"/>
    </g>
    <g>
      <path class="st2" d="M906.1,104.6h-2.5"/>
      <path class="st3" d="M867.9,104.6"/>
      <path class="st3" d="M903.6,104.6"/>
    </g>
    <g>
      <path class="st3" d="M867.9,134.6"/>
    </g>
    <g>
      <path class="st4" d="M903.6,114.3H581"/>
    </g>
    <g>
      <path class="st3" d="M867.9,224.6"/>
    </g>
    <g>
      <path class="st4" d="M903.6,187.1H652.4"/>
    </g>
    <line class="st4" x1="652.3" y1="244.4" x2="580.9" y2="244.4"/>
    <line class="st4" x1="652.3" y1="244.4" x2="652.4" y2="187.1"/>
    <g>
      <g>
        <path d="M923.1,114c0,1.1-0.1,2-0.3,2.9s-0.5,1.5-0.9,2.1s-0.9,1-1.5,1.3s-1.3,0.4-2.1,0.4c-0.8,0-1.5-0.1-2.1-0.4 s-1.1-0.7-1.5-1.3s-0.7-1.3-0.9-2.1s-0.3-1.8-0.3-2.9c0-1.4,0.2-2.6,0.6-3.6s0.9-1.7,1.7-2.2s1.6-0.8,2.7-0.8 c1.1,0,2,0.2,2.7,0.7s1.3,1.2,1.6,2.2S923.1,112.6,923.1,114z M916.5,114c0,0.9,0.1,1.6,0.2,2.2s0.3,1,0.6,1.3s0.6,0.4,0.9,0.4 c0.4,0,0.7-0.1,1-0.4s0.4-0.7,0.6-1.3s0.2-1.3,0.2-2.2c0-1.4-0.1-2.4-0.4-3s-0.7-1-1.3-1c-0.4,0-0.7,0.1-0.9,0.4 s-0.4,0.7-0.6,1.3S916.5,113.1,916.5,114z"/>
        <path d="M929.6,110.3c0.1,0,0.2,0,0.4,0s0.3,0,0.5,0.1l-0.2,3.1c-0.1,0-0.2-0.1-0.4-0.1s-0.3,0-0.5,0c-0.3,0-0.5,0-0.7,0.1 s-0.4,0.2-0.5,0.4s-0.2,0.4-0.3,0.6s-0.1,0.5-0.1,0.9v5h-2.9v-10h2.2l0.4,1.6h0.1c0.1-0.3,0.3-0.5,0.5-0.8s0.4-0.5,0.7-0.7 S929.3,110.3,929.6,110.3z"/>
        <path d="M935.4,110.3c1,0,1.8,0.3,2.4,0.9s0.9,1.5,0.9,2.7v6.5h-2.1l-0.5-1.3h-0.1c-0.2,0.3-0.4,0.6-0.7,0.8s-0.5,0.4-0.8,0.5 s-0.7,0.2-1.1,0.2c-0.6,0-1-0.2-1.4-0.5s-0.6-0.7-0.8-1.2s-0.2-1-0.2-1.5c0-1.1,0.3-1.9,0.9-2.4s1.4-0.8,2.5-0.9l1.3-0.1v-0.3 c0-0.4-0.1-0.7-0.2-0.9s-0.4-0.3-0.7-0.3c-0.3,0-0.6,0.1-1,0.2s-0.7,0.3-1.2,0.6l-0.8-2.2c0.5-0.3,1-0.5,1.6-0.7 S934.7,110.3,935.4,110.3z M935.7,116l-0.5,0c-0.4,0-0.7,0.1-0.9,0.3s-0.3,0.5-0.3,0.9c0,0.3,0.1,0.6,0.2,0.8s0.3,0.3,0.5,0.3 c0.3,0,0.5-0.1,0.7-0.4s0.3-0.6,0.3-1V116z"/>
        <path d="M945.4,110.3c0.9,0,1.5,0.3,2,1s0.7,1.5,0.7,2.7v6.5h-2.9v-5.5c0-0.7-0.1-1.2-0.2-1.5s-0.3-0.5-0.7-0.5 c-0.4,0-0.7,0.2-0.8,0.7s-0.2,1.2-0.2,2.3v4.6h-2.9v-10h2.3l0.3,1.2h0.2c0.2-0.3,0.3-0.6,0.5-0.8s0.5-0.4,0.7-0.5 S945,110.3,945.4,110.3z"/>
        <path d="M952.8,124.8c-1.2,0-2.1-0.2-2.7-0.7s-1-1.2-1-2.1c0-0.5,0.2-1,0.5-1.4s0.8-0.7,1.4-0.9c-0.3-0.1-0.5-0.3-0.7-0.5 s-0.3-0.6-0.3-0.9c0-0.4,0.1-0.7,0.3-0.9s0.4-0.5,0.7-0.7c-0.4-0.3-0.7-0.6-0.9-1.2s-0.3-1.1-0.3-1.7c0-0.7,0.1-1.4,0.4-1.9 s0.7-0.9,1.2-1.2s1.2-0.4,2-0.4c0.2,0,0.4,0,0.6,0s0.3,0.1,0.5,0.1s0.2,0.1,0.3,0.1h3.1v1.7l-1.1,0.3c0.1,0.2,0.1,0.4,0.2,0.6 s0,0.4,0,0.7c0,1.1-0.3,1.9-0.9,2.5s-1.5,0.9-2.7,0.9c-0.3,0-0.6,0-0.7-0.1c-0.1,0.1-0.1,0.1-0.2,0.2s-0.1,0.2-0.1,0.3 c0,0.1,0,0.2,0.1,0.3s0.2,0.1,0.3,0.2s0.3,0.1,0.6,0.1h1.8c0.8,0,1.5,0.2,1.9,0.7s0.7,1.1,0.7,2.1c0,1.2-0.4,2.2-1.2,2.8 S954.4,124.8,952.8,124.8z M953,122.7c0.5,0,0.8,0,1.1-0.1s0.5-0.2,0.6-0.4s0.2-0.4,0.2-0.6c0-0.2,0-0.3-0.1-0.4 s-0.2-0.2-0.3-0.2s-0.4-0.1-0.7-0.1h-1.4c-0.1,0-0.3,0-0.3,0.1s-0.2,0.2-0.2,0.3s-0.1,0.3-0.1,0.5c0,0.3,0.1,0.5,0.3,0.7 S952.6,122.7,953,122.7z M953.3,115.3c0.2,0,0.4-0.1,0.5-0.4s0.2-0.6,0.2-1.1c0-0.5-0.1-0.9-0.2-1.1s-0.3-0.4-0.5-0.4 c-0.2,0-0.4,0.1-0.5,0.4s-0.2,0.6-0.2,1.1c0,0.5,0.1,0.9,0.2,1.1S953,115.3,953.3,115.3z"/>
        <path d="M966.6,110.5v10h-2.3l-0.3-1.2h-0.1c-0.2,0.3-0.3,0.6-0.6,0.8s-0.5,0.4-0.7,0.5s-0.6,0.2-0.9,0.2c-0.6,0-1.1-0.1-1.5-0.4 c-0.4-0.3-0.7-0.7-0.9-1.2s-0.3-1.2-0.3-2v-6.5h2.9v5.5c0,0.7,0.1,1.2,0.2,1.5s0.3,0.5,0.6,0.5c0.4,0,0.6-0.1,0.8-0.3 s0.3-0.5,0.3-0.9s0.1-0.9,0.1-1.4v-4.9H966.6z"/>
        <path d="M972.2,118.1c0.2,0,0.4,0,0.6-0.1s0.4-0.1,0.7-0.3v2.3c-0.3,0.2-0.7,0.3-1,0.4s-0.7,0.1-1.1,0.1c-0.7,0-1.2-0.1-1.6-0.4 s-0.7-0.6-0.9-1.1s-0.3-1.2-0.3-1.9v-4.3h-1v-1.5l1.3-0.8l0.7-2.1h2v2h1.9v2.4h-1.9v4.2c0,0.3,0.1,0.6,0.2,0.7 S972,118.1,972.2,118.1z"/>
        <path d="M978.6,110.3c1,0,1.8,0.3,2.4,0.9s0.9,1.5,0.9,2.7v6.5h-2.1l-0.5-1.3h-0.1c-0.2,0.3-0.4,0.6-0.7,0.8s-0.5,0.4-0.8,0.5 s-0.7,0.2-1.1,0.2c-0.6,0-1-0.2-1.4-0.5s-0.6-0.7-0.8-1.2s-0.2-1-0.2-1.5c0-1.1,0.3-1.9,0.9-2.4s1.4-0.8,2.5-0.9l1.3-0.1v-0.3 c0-0.4-0.1-0.7-0.2-0.9s-0.4-0.3-0.7-0.3c-0.3,0-0.6,0.1-1,0.2s-0.7,0.3-1.2,0.6l-0.8-2.2c0.5-0.3,1-0.5,1.6-0.7 S977.9,110.3,978.6,110.3z M978.9,116l-0.5,0c-0.4,0-0.7,0.1-0.9,0.3s-0.3,0.5-0.3,0.9c0,0.3,0.1,0.6,0.2,0.8s0.3,0.3,0.5,0.3 c0.3,0,0.5-0.1,0.7-0.4s0.3-0.6,0.3-1V116z"/>
        <path d="M988.6,110.3c0.9,0,1.5,0.3,2,1s0.7,1.5,0.7,2.7v6.5h-2.9v-5.5c0-0.7-0.1-1.2-0.2-1.5s-0.3-0.5-0.7-0.5 c-0.4,0-0.7,0.2-0.8,0.7s-0.2,1.2-0.2,2.3v4.6h-2.9v-10h2.3l0.3,1.2h0.2c0.2-0.3,0.3-0.6,0.5-0.8s0.5-0.4,0.7-0.5 S988.3,110.3,988.6,110.3z"/>
      </g>
    </g>
    <g>
      <g>
        <path d="M917.9,183.7h4.5v6.9c-0.7,0.3-1.3,0.5-2,0.6s-1.4,0.2-2.1,0.2c-1.1,0-1.9-0.3-2.7-0.8s-1.3-1.3-1.7-2.3 s-0.6-2.2-0.6-3.6c0-1.4,0.2-2.6,0.7-3.5s1.1-1.7,1.9-2.3s1.8-0.8,3-0.8c0.7,0,1.3,0.1,1.9,0.2s1.1,0.3,1.5,0.6l-0.9,2.5 c-0.4-0.2-0.7-0.4-1.1-0.5s-0.8-0.2-1.3-0.2c-0.5,0-1,0.2-1.4,0.5s-0.6,0.8-0.8,1.4s-0.3,1.3-0.3,2.2c0,0.8,0.1,1.6,0.2,2.1 s0.4,1,0.7,1.3s0.6,0.4,1.1,0.4c0.2,0,0.3,0,0.5,0s0.3-0.1,0.5-0.1v-2.4h-1.5V183.7z"/>
        <path d="M932,186.2c0,0.6-0.1,1.3-0.2,1.9s-0.4,1.2-0.7,1.7s-0.7,0.9-1.3,1.2s-1.2,0.4-1.9,0.4c-0.7,0-1.3-0.1-1.8-0.4 s-0.9-0.7-1.3-1.2s-0.6-1-0.7-1.7s-0.2-1.3-0.2-1.9c0-1,0.1-1.8,0.4-2.6s0.7-1.4,1.3-1.9s1.4-0.7,2.4-0.7c0.8,0,1.5,0.2,2.1,0.6 s1.1,1,1.4,1.7S932,185.1,932,186.2z M926.8,186.3c0,0.6,0,1.1,0.1,1.5s0.2,0.7,0.4,0.9s0.4,0.3,0.6,0.3c0.3,0,0.5-0.1,0.7-0.3 s0.3-0.5,0.3-0.9s0.1-0.9,0.1-1.5s0-1.1-0.1-1.5s-0.2-0.7-0.3-0.9s-0.4-0.3-0.7-0.3c-0.4,0-0.7,0.2-0.8,0.7 S926.8,185.3,926.8,186.3z"/>
        <path d="M938.4,181.1c0.1,0,0.2,0,0.4,0s0.3,0,0.5,0.1l-0.2,3.1c-0.1,0-0.2-0.1-0.4-0.1s-0.3,0-0.5,0c-0.3,0-0.5,0-0.7,0.1 s-0.4,0.2-0.5,0.4s-0.2,0.4-0.3,0.6s-0.1,0.5-0.1,0.9v5h-2.9v-10h2.2l0.4,1.6h0.1c0.1-0.3,0.3-0.5,0.5-0.8s0.4-0.5,0.7-0.7 S938.1,181.1,938.4,181.1z"/>
        <path d="M941.7,177.3c0.5,0,0.9,0.1,1.2,0.4s0.4,0.6,0.4,1.1s-0.1,0.9-0.4,1.1s-0.6,0.4-1.2,0.4c-0.5,0-0.9-0.1-1.2-0.4 s-0.4-0.6-0.4-1.1c0-0.5,0.1-0.9,0.4-1.2S941.2,177.3,941.7,177.3z M943.2,181.3v10h-2.9v-10H943.2z"/>
        <path d="M947.9,191.2H945v-13.7h2.9V191.2z"/>
        <path d="M952.7,191.2h-2.9v-13.7h2.9V191.2z"/>
        <path d="M958.4,181.1c1,0,1.8,0.3,2.4,0.9s0.9,1.5,0.9,2.7v6.5h-2.1l-0.5-1.3H959c-0.2,0.3-0.4,0.6-0.7,0.8s-0.5,0.4-0.8,0.5 s-0.7,0.2-1.1,0.2c-0.6,0-1-0.2-1.4-0.5s-0.6-0.7-0.8-1.2s-0.2-1-0.2-1.5c0-1.1,0.3-1.9,0.9-2.4s1.4-0.8,2.5-0.9l1.3-0.1v-0.3 c0-0.4-0.1-0.7-0.2-0.9s-0.4-0.3-0.7-0.3c-0.3,0-0.6,0.1-1,0.2s-0.7,0.3-1.2,0.6l-0.8-2.2c0.5-0.3,1-0.5,1.6-0.7 S957.7,181.1,958.4,181.1z M958.7,186.8l-0.5,0c-0.4,0-0.7,0.1-0.9,0.3s-0.3,0.5-0.3,0.9c0,0.3,0.1,0.6,0.2,0.8s0.3,0.3,0.5,0.3 c0.3,0,0.5-0.1,0.7-0.4s0.3-0.6,0.3-1V186.8z"/>
      </g>
    </g>
    <g transform="matrix(1, 0, 0, 1, -0.373223, -4.190392)">
      <g>
        <path d="M740.8,447.4c-1.6,0-2.9-0.6-3.9-1.7s-1.4-2.8-1.4-4.9c0-2.2,0.5-3.9,1.5-5s2.3-1.7,3.9-1.7c0.7,0,1.3,0.1,1.8,0.3 s0.9,0.4,1.3,0.7c0.4,0.3,0.7,0.6,0.9,1h0.1c0-0.2-0.1-0.6-0.1-1s0-0.8,0-1V429h1.9v18.2h-1.6l-0.3-1.8h-0.1 c-0.2,0.4-0.5,0.7-0.9,1s-0.8,0.6-1.3,0.7S741.5,447.4,740.8,447.4z M741.1,445.8c1.4,0,2.3-0.4,2.9-1.2c0.6-0.8,0.9-1.9,0.9-3.5 v-0.3c0-1.6-0.3-2.9-0.8-3.8s-1.5-1.3-3-1.3c-1.2,0-2.1,0.5-2.7,1.4c-0.6,0.9-0.9,2.2-0.9,3.8c0,1.6,0.3,2.8,0.9,3.7 C739,445.5,739.9,445.8,741.1,445.8z"/>
        <path d="M755,445.8c0.3,0,0.6,0,1-0.1s0.6-0.1,0.8-0.2v1.5c-0.2,0.1-0.5,0.2-0.9,0.3c-0.4,0.1-0.8,0.1-1.2,0.1 c-0.7,0-1.3-0.1-1.9-0.4c-0.6-0.3-1-0.6-1.3-1.2s-0.5-1.4-0.5-2.4v-7.6h-1.8v-0.9l1.8-0.8l0.8-2.8h1.2v3h3.8v1.5H753v7.6 c0,0.8,0.2,1.4,0.6,1.8C754,445.6,754.4,445.8,755,445.8z"/>
      </g>
    </g>
  </g>
</svg>